<svg data-v-0dd9719b="" version="1.0" xmlns="http://www.w3.org/2000/svg" xmlns:xlink="http://www.w3.org/1999/xlink" width="100%" height="100%" viewBox="0 0 340.000000 250.000000" preserveAspectRatio="xMidYMid meet" color-interpolation-filters="sRGB" style="margin: auto;"> <rect data-v-0dd9719b="" x="0" y="0" width="100%" height="100%" fill="#fefdfd" fill-opacity="1" class="background"></rect> <rect data-v-0dd9719b="" x="0" y="0" width="100%" height="100%" fill="url(#watermark)" fill-opacity="1" class="watermarklayer"></rect> <g data-v-0dd9719b="" fill="#a1bfa1" class="icon-text-wrapper icon-svg-group iconsvg" transform="translate(49.16779327392578,97.08093643188477)"><g class="iconsvg-imagesvg" transform="translate(0,7.418437957763672)"><g><rect fill="#a1bfa1" fill-opacity="0" stroke-width="2" x="0" y="0" width="60" height="41.00125053814141" class="image-rect"></rect> <svg filter="url(#colors4428793442)" x="0" y="0" width="60" height="41.00125053814141" filtersec="colorsf3720185335" class="image-svg-svg primary" style="overflow: visible;"><svg xmlns="http://www.w3.org/2000/svg" viewBox="-0.03451329469680786 -0.10244602710008621 73.1754379272461 50.00489807128906"><g><path d="M12.37 2a2.76 2.76 0 0 1 2.5-2h11.48a1.46 1.46 0 0 1 1.44 2 2.76 2.76 0 0 1-2.5 2H13.81a1.46 1.46 0 0 1-1.44-2zm-.09 7.71h11.47a2.76 2.76 0 0 0 2.5-2 1.46 1.46 0 0 0-1.44-2H13.33a2.76 2.76 0 0 0-2.5 2 1.46 1.46 0 0 0 1.45 1.97zm-1.54 5.74h11.47a2.76 2.76 0 0 0 2.5-2 1.46 1.46 0 0 0-1.44-2H11.79a2.76 2.76 0 0 0-2.5 2 1.46 1.46 0 0 0 1.45 1.97zM9.2 21.16h24.92a2.76 2.76 0 0 0 2.5-2 1.46 1.46 0 0 0-1.44-2H10.26a2.76 2.76 0 0 0-2.5 2 1.46 1.46 0 0 0 1.44 2zM7.66 26.9h49.85a2.76 2.76 0 0 0 2.5-2 1.46 1.46 0 0 0-1.44-2H8.72a2.76 2.76 0 0 0-2.5 2 1.46 1.46 0 0 0 1.44 2zM66 28.69H7.18a2.76 2.76 0 0 0-2.5 2 1.46 1.46 0 0 0 1.44 2h58.81a2.76 2.76 0 0 0 2.5-2 1.46 1.46 0 0 0-1.43-2zm-42.6 5.74H5.65a2.76 2.76 0 0 0-2.5 2 1.46 1.46 0 0 0 1.44 2h17.74a2.76 2.76 0 0 0 2.5-2 1.46 1.46 0 0 0-1.44-2zm-7.81 5.74H4.11a2.76 2.76 0 0 0-2.5 2 1.46 1.46 0 0 0 1.44 2h11.48a2.76 2.76 0 0 0 2.5-2 1.46 1.46 0 0 0-1.45-2.01zM14 45.9H2.57a2.76 2.76 0 0 0-2.5 2 1.46 1.46 0 0 0 1.44 2H13a2.76 2.76 0 0 0 2.5-2 1.46 1.46 0 0 0-1.5-2zm32.58-42H58.1a2.76 2.76 0 0 0 2.5-2 1.46 1.46 0 0 0-1.44-2H47.68a2.76 2.76 0 0 0-2.5 2 1.46 1.46 0 0 0 1.44 2.04zm-1.49 5.78h11.47a2.76 2.76 0 0 0 2.5-2 1.46 1.46 0 0 0-1.44-2H46.14a2.76 2.76 0 0 0-2.5 2 1.46 1.46 0 0 0 1.45 2zm-1.54 5.74H55a2.76 2.76 0 0 0 2.5-2 1.46 1.46 0 0 0-1.44-2H44.61a2.76 2.76 0 0 0-2.5 2 1.46 1.46 0 0 0 1.44 2zM42 21.16h11.49a2.76 2.76 0 0 0 2.5-2 1.46 1.46 0 0 0-1.44-2H43.07a2.76 2.76 0 0 0-2.5 2 1.46 1.46 0 0 0 1.43 2zm11.34 13.27H38.46a2.76 2.76 0 0 0-2.5 2 1.46 1.46 0 0 0 1.44 2h14.88a2.76 2.76 0 0 0 2.5-2 1.46 1.46 0 0 0-1.44-2zm-4.94 5.73H36.92a2.76 2.76 0 0 0-2.5 2 1.46 1.46 0 0 0 1.44 2h11.48a2.76 2.76 0 0 0 2.5-2 1.46 1.46 0 0 0-1.44-2zm-1.54 5.74H35.38a2.76 2.76 0 0 0-2.5 2 1.46 1.46 0 0 0 1.44 2H45.8a2.76 2.76 0 0 0 2.5-2 1.46 1.46 0 0 0-1.44-2zm11.81-24.83a2.7 2.7 0 0 0 2.44-1.93 1.43 1.43 0 0 0-1.41-1.93 2.7 2.7 0 0 0-2.44 1.93 1.43 1.43 0 0 0 1.41 1.93zm4.41 5.78a2.7 2.7 0 0 0 2.44-1.93A1.43 1.43 0 0 0 64.11 23a2.7 2.7 0 0 0-2.44 1.93 1.43 1.43 0 0 0 1.41 1.92zM71.64 23a2.7 2.7 0 0 0-2.44 1.93 1.43 1.43 0 0 0 1.41 1.93 2.7 2.7 0 0 0 2.44-1.93A1.43 1.43 0 0 0 71.64 23zM58.26 34.47a2.7 2.7 0 0 0-2.44 1.93 1.43 1.43 0 0 0 1.41 1.93 2.7 2.7 0 0 0 2.44-1.93 1.43 1.43 0 0 0-1.41-1.93z" fill="#000000"></path></g></svg></svg> <defs><filter id="colors4428793442"><feColorMatrix type="matrix" values="0 0 0 0 0.1484375  0 0 0 0 0.21875  0 0 0 0 0.41015625  0 0 0 1 0" class="icon-fecolormatrix"></feColorMatrix></filter> <filter id="colorsf3720185335"><feColorMatrix type="matrix" values="0 0 0 0 0.99609375  0 0 0 0 0.99609375  0 0 0 0 0.99609375  0 0 0 1 0" class="icon-fecolormatrix"></feColorMatrix></filter> <filter id="colorsb3356216529"><feColorMatrix type="matrix" values="0 0 0 0 0  0 0 0 0 0  0 0 0 0 0  0 0 0 1 0" class="icon-fecolormatrix"></feColorMatrix></filter></defs></g></g> <g transform="translate(67,0)"><g data-gra="path-name" fill-rule="" class="tp-name iconsvg-namesvg" transform="translate(0,0)"><g transform="scale(1)"><g><path d="M33.84 3.28Q32.53 3.42 29.92 3.33L29.92 3.33Q28.21 3.24 27.99 1.75L27.99 1.75Q27.95 1.71 27.95 1.62L27.95 1.62Q27.36 0.49 29.02 0.54L29.02 0.54Q30.6 0.63 32.53 0.63L32.53 0.63Q33.75 0.63 34.2 0L34.2 0Q34.78-0.77 35.23-2.92L35.23-2.92 18.72-2.92 18.63-2.34Q18.36-0.85 16.88-0.99L16.88-0.99Q15.16-1.13 15.48-2.56L15.48-2.56Q16.06-5.71 17.1-12.69L17.1-12.69 14.54-12.69Q13-12.69 13-14.22 13-15.75 14.54-15.75L14.54-15.75 17.55-15.75Q18.18-20.52 18.45-22.72L18.45-22.72Q18.54-23.71 19.28-24.34 20.02-24.97 21.11-24.97L21.11-24.97 37.21-24.97Q39.87-24.97 39.73-21.6L39.73-21.6Q39.51-17.59 39.46-15.75L39.46-15.75 41.76-15.75Q43.29-15.75 43.29-14.22 43.29-12.69 41.76-12.69L41.76-12.69 39.28-12.69Q39.02-8.73 38.74-5.85L38.74-5.85 41.58-5.85Q43.02-5.85 43.02-4.41L43.02-4.41Q43.02-2.92 41.58-2.92L41.58-2.92 38.34-2.92Q37.89 0.58 36.9 1.71L36.9 1.71Q35.91 3.06 33.84 3.28L33.84 3.28ZM6.88 1.35Q6.17 2.88 4.54 1.84L4.54 1.84Q3.82 1.35 3.65 0.88 3.46 0.4 3.87-0.32L3.87-0.32Q5.26-2.88 6.61-5.71L6.61-5.71Q7.83-8.19 9.45-11.92L9.45-11.92Q10.13-13.54 11.61-12.46L11.61-12.46Q12.64-11.65 12.2-10.53L12.2-10.53Q9.76-4.46 6.88 1.35L6.88 1.35ZM19.21-5.85L19.21-5.85 25.65-5.85Q26.19-9.86 26.5-12.69L26.5-12.69 20.2-12.69Q19.93-10.71 19.39-7.02L19.39-7.02Q19.26-6.21 19.21-5.85ZM28.53-5.85L28.53-5.85 35.64-5.85Q35.95-8.23 36.23-12.69L36.23-12.69 29.34-12.69Q29.11-10.08 28.53-5.85ZM20.56-15.75L20.56-15.75 26.82-15.75Q27.13-18.81 27.36-22.05L27.36-22.05 21.38-22.05Q21.02-18.9 20.56-15.75ZM29.65-15.75L29.65-15.75 36.41-15.75Q36.45-16.7 36.54-18.63L36.54-18.63Q36.59-20.2 36.63-21.02L36.63-21.02Q36.67-22.05 35.73-22.05L35.73-22.05 30.2-22.05Q30.11-20.84 29.88-18.18L29.88-18.18Q29.74-16.56 29.65-15.75ZM9.63-18.68Q9.04-18.54 8.41-19.13L8.41-19.13Q6.34-20.7 3.69-22.09L3.69-22.09Q2.16-22.86 3.19-24.25L3.19-24.25Q3.96-25.33 5.08-24.79L5.08-24.79Q5.94-24.39 7.6-23.49L7.6-23.49Q7.96-23.27 8.14-23.18L8.14-23.18Q9.36-22.5 10.53-21.64L10.53-21.64Q11.52-20.75 10.66-19.57L10.66-19.57Q10.08-18.81 9.63-18.68L9.63-18.68ZM15.41-22.41Q14.89-22.32 14.17-22.81L14.17-22.81Q13.32-23.4 13.25-23.94 13.18-24.48 13.86-25.24L13.86-25.24Q17.28-29.52 19.48-36.05L19.48-36.05Q19.98-37.62 21.51-37.3L21.51-37.3Q23.27-36.9 22.68-35.23L22.68-35.23Q22.18-33.7 21.46-32.09L21.46-32.09 40.99-32.09Q42.52-32.09 42.52-30.55 42.52-29.02 40.99-29.02L40.99-29.02 20.07-29.02Q18.36-25.65 16.47-23.18L16.47-23.18Q15.93-22.5 15.41-22.41ZM12.69-31.14Q11.56-29.7 10.44-30.82L10.44-30.82Q9.4-31.63 8.37-32.31L8.37-32.31Q7.02-33.25 5.76-33.98L5.76-33.98Q4.27-34.74 5.35-36.13L5.35-36.13Q6.17-37.17 7.29-36.59L7.29-36.59Q10.71-34.78 12.69-33.12L12.69-33.12Q13.59-32.31 12.69-31.14L12.69-31.14ZM77.04 3.46L77.04 3.46Q75.19 3.46 74.75 2.29L74.75 2.29Q74.38 1.4 75.06 0.9L75.06 0.9Q75.6 0.49 76.77 0.54L76.77 0.54Q79.47 0.63 80.28 0.54L80.28 0.54Q80.87 0.49 81.09 0.29 81.31 0.09 81.31-0.45L81.31-0.45 81.31-21.2Q81.31-22.14 80.37-22.14L80.37-22.14 54.67-22.14Q53.73-22.14 53.73-21.2L53.73-21.2 53.73 1.8Q53.73 3.42 52.11 3.42L52.11 3.42Q50.49 3.42 50.49 1.8L50.49 1.8 50.49-22.63Q50.49-23.8 51.21-24.52 51.93-25.24 53.1-25.24L53.1-25.24 64.98-25.24Q65.16-26.28 65.38-28.71L65.38-28.71Q65.47-29.56 65.52-30.02L65.52-30.02 49.63-30.02Q48.06-30.02 48.06-31.59 48.06-33.16 49.63-33.16L49.63-33.16 65.84-33.16Q65.88-33.62 65.92-34.47L65.92-34.47Q66.02-35.46 66.06-35.91L66.06-35.91Q66.11-37.66 68-37.48L68-37.48Q69.75-37.26 69.57-35.59L69.57-35.59Q69.53-35.19 69.41-34.38 69.3-33.57 69.25-33.16L69.25-33.16 85.45-33.16Q87.03-33.16 87.03-31.59 87.03-30.02 85.45-30.02L85.45-30.02 68.85-30.02Q68.67-28.62 68.27-26.01L68.27-26.01Q68.17-25.52 68.13-25.24L68.13-25.24 82.03-25.24Q83.2-25.24 83.92-24.52 84.64-23.8 84.64-22.63L84.64-22.63 84.64-0.45Q84.64 1.03 84.22 1.8 83.79 2.56 82.75 2.92L82.75 2.92Q81.36 3.46 77.04 3.46ZM67.41 2.56L67.41 2.56Q65.79 2.56 65.79 0.99L65.79 0.99 65.79-5.35 57.64-5.35Q56.25-5.35 56.25-6.75 56.25-8.14 57.64-8.14L57.64-8.14 65.79-8.14 65.79-12.69 58.5-12.69Q57.15-12.69 57.15-14.08L57.15-14.08Q57.15-15.43 58.5-15.43L58.5-15.43 61.83-15.43Q61.47-16.88 60.25-19.3L60.25-19.3Q59.45-20.75 60.98-21.15L60.98-21.15Q62.05-21.42 62.59-20.52L62.59-20.52Q63.41-19.13 63.86-18.13L63.86-18.13Q64.22-17.32 63.83-16.58 63.45-15.84 62.5-15.52L62.5-15.52 62.19-15.43 70.16-15.43Q71.33-17.86 72.27-20.38L72.27-20.38Q72.72-21.6 74.07-21.29L74.07-21.29Q75.64-20.88 74.97-19.3L74.97-19.3Q74.79-18.95 74.47-18.27L74.47-18.27Q73.58-16.29 73.13-15.43L73.13-15.43 76.81-15.43Q78.16-15.43 78.16-14.08L78.16-14.08Q78.16-12.69 76.81-12.69L76.81-12.69 68.98-12.69 68.98-8.14 77.49-8.14Q78.88-8.14 78.88-6.75 78.88-5.35 77.49-5.35L77.49-5.35 68.98-5.35 68.98 0.99Q68.98 2.56 67.41 2.56ZM120.15 3.28L120.15 3.28Q118.62 3.28 118.62 1.8L118.62 1.8 118.62-5.31Q115.16-0.63 109.98 2.11L109.98 2.11Q108.77 2.75 107.86 1.75L107.86 1.75Q107.19 0.99 107.37 0.45L107.37 0.45Q107.55-0.04 108.59-0.49L108.59-0.49Q113.63-2.92 116.86-7.02L116.86-7.02 111.51-7.02Q110.16-7.02 110.16-8.37 110.16-9.72 111.51-9.72L111.51-9.72 118.62-9.72 118.62-13.14Q116.19-12.78 115.06-12.64L115.06-12.64Q113.4-12.51 112.86-14.13L112.86-14.13 112.81-14.17Q111.56-12.73 110.52-11.83L110.52-11.83Q108.94-10.48 107.37-11.88L107.37-11.88 107.28-11.92 107.28-11.74 101.92-11.74 101.92-4.95 107.01-5.94Q108.5-6.25 108.63-4.72L108.63-4.72Q108.77-3.46 107.37-3.15L107.37-3.15Q103.81-2.43 97.06-0.9L97.06-0.9Q94.64-0.36 93.51-0.14L93.51-0.14Q92.79 0.04 92.43-0.29 92.07-0.63 91.94-1.44L91.94-1.44Q91.67-2.92 92.97-3.15L92.97-3.15Q95.58-3.69 98.82-4.32L98.82-4.32 98.82-11.74 94.45-11.74Q93.02-11.74 93.02-13.23L93.02-13.23Q93.02-14.67 94.45-14.67L94.45-14.67 98.82-14.67 98.82-18.72Q98.82-20.25 100.39-20.25L100.39-20.25Q101.92-20.25 101.92-18.72L101.92-18.72 101.92-14.67 105.89-14.67Q107.28-14.67 107.28-13.28L107.28-13.28 107.28-13.14Q110.47-15.57 112.86-19.35L112.86-19.35 109.13-19.35Q107.69-19.35 107.69-20.79L107.69-20.79 107.69-20.93 107.01-20.61Q106.61-20.47 106.47-20.84L106.47-20.84Q106.34-21.15 106.06-21.78L106.06-21.78Q105.93-22.05 105.84-22.23L105.84-22.23Q102.02-21.78 94.91-20.93L94.91-20.93Q93.96-20.84 93.51-20.79L93.51-20.79Q92.79-20.75 92.47-21.04 92.16-21.33 92.07-22.09L92.07-22.09Q91.84-23.58 93.28-23.71L93.28-23.71Q94.19-23.8 94.68-23.85L94.68-23.85Q96.12-27.54 97.16-31.9L97.16-31.9 93.87-31.9Q92.47-31.9 92.47-33.34L92.47-33.34Q92.47-34.74 93.87-34.74L93.87-34.74 107.14-34.74Q108.54-34.74 108.54-33.34L108.54-33.34Q108.54-31.9 107.14-31.9L107.14-31.9 100.35-31.9Q100.31-31.72 100.17-31.36L100.17-31.36Q98.59-26.28 97.78-24.12L97.78-24.12 104.4-24.79Q103.91-25.56 102.83-27L102.83-27Q101.92-28.13 103.32-28.75L103.32-28.75Q104.31-29.16 104.94-28.39L104.94-28.39Q107.73-25.02 109.03-21.96L109.03-21.96 114.25-21.96Q115.02-23.63 115.61-25.38L115.61-25.38 111.56-25.38Q110.3-25.38 110.3-26.64 110.3-27.9 111.56-27.9L111.56-27.9 116.41-27.9Q116.86-29.65 117.18-31.18L117.18-31.18 110.97-31.18Q109.66-31.18 109.66-32.49 109.66-33.8 110.97-33.8L110.97-33.8 117.63-33.8Q117.63-33.88 117.67-34.06L117.67-34.06Q117.9-35.46 117.99-36.23L117.99-36.23Q118.22-37.71 119.72-37.57 121.23-37.44 121-35.91L121-35.91Q120.91-35.05 120.64-33.8L120.64-33.8 130.09-33.8Q131.4-33.8 131.4-32.49 131.4-31.18 130.09-31.18L130.09-31.18 120.19-31.18Q120.06-30.69 119.88-29.74L119.88-29.74Q119.56-28.53 119.43-27.9L119.43-27.9 129.78-27.9Q131.04-27.9 131.04-26.64 131.04-25.38 129.78-25.38L129.78-25.38 124.29-25.38Q125.01-23.54 125.82-21.96L125.82-21.96 131.58-21.96Q132.88-21.96 132.88-20.65 132.88-19.35 131.58-19.35L131.58-19.35 127.39-19.35Q129.56-16.02 132.03-14.08L132.03-14.08Q133.51-13.05 132.3-11.74L132.3-11.74Q131.76-11.16 131.31-11.12 130.86-11.07 130.19-11.56L130.19-11.56Q126.77-14.4 124.06-19.35L124.06-19.35 116.23-19.35Q114.84-16.7 113.36-14.85L113.36-14.85Q119.79-15.79 122.98-16.96L122.98-16.96Q123.48-17.14 123.88-17.01L123.88-17.01Q124.16-16.92 124.65-16.52L124.65-16.52Q126.18-15.16 124.38-14.54L124.38-14.54Q122.81-14.04 121.63-13.77L121.63-13.77 121.63-9.72 129.1-9.72Q130.45-9.72 130.45-8.37 130.45-7.02 129.1-7.02L129.1-7.02 123.62-7.02Q126.81-3.33 131.22-0.77L131.22-0.77Q132.07-0.27 132.16 0.2 132.25 0.67 131.63 1.4L131.63 1.4Q131.13 1.93 130.68 2 130.23 2.07 129.64 1.71L129.64 1.71Q125.06-1.44 121.63-5.76L121.63-5.76 121.63 1.8Q121.63 3.28 120.15 3.28ZM117.45-21.96L117.45-21.96 122.81-21.96Q122.04-23.71 121.45-25.38L121.45-25.38 118.71-25.38Q118.08-23.36 117.45-21.96ZM158.04 3.42L158.04 3.42Q156.28 3.42 156.28 1.71L156.28 1.71 156.28-12.24 139.32-12.24Q137.7-12.24 137.7-13.9L137.7-13.9Q137.7-15.52 139.32-15.52L139.32-15.52 156.28-15.52 156.28-26.19 145.44-26.19Q143.82-22.9 141.79-20.07L141.79-20.07Q140.85-18.81 139.46-19.57L139.46-19.57Q138.56-20.07 138.42-20.63 138.28-21.2 138.96-22L138.96-22Q142.83-26.91 145.22-34.74L145.22-34.74Q145.71-36.45 147.33-36.13L147.33-36.13Q149.04-35.82 148.54-34.06L148.54-34.06Q147.87-31.9 146.84-29.47L146.84-29.47 156.28-29.47 156.28-35.95Q156.28-37.66 158.04-37.66L158.04-37.66Q159.75-37.66 159.75-35.95L159.75-35.95 159.75-29.47 173.3-29.47Q174.91-29.47 174.91-27.86L174.91-27.86Q174.91-26.19 173.3-26.19L173.3-26.19 159.75-26.19 159.75-15.52 175.81-15.52Q177.44-15.52 177.44-13.9L177.44-13.9Q177.44-12.24 175.81-12.24L175.81-12.24 159.75-12.24 159.75 1.71Q159.75 3.42 158.04 3.42Z" transform="translate(-2.7755861282348633, 37.65999984741211)"></path></g> <!----> <!----> <!----> <!----> <!----> <!----> <!----></g></g> <g data-gra="path-slogan" fill-rule="" class="tp-slogan iconsvg-slogansvg" fill="#a1bfa1" transform="translate(5.000007629394531,47.119998931884766)"><rect x="0" height="1" y="3.8600001335144043" width="29.45720672607422"></rect> <rect height="1" y="3.8600001335144043" width="29.45720672607422" x="135.20720672607422"></rect> <g transform="translate(32.45720672607422,0)"><g transform="scale(1)"><path d="M2.06-5.06L6.56-5.06L6.56-8.58L7.73-8.58L7.73 0L6.56 0L6.56-3.98L2.06-3.98L2.06 0L0.89 0L0.89-8.58L2.06-8.58L2.06-5.06ZM15.19 0L14.34-2.48L10.88-2.48L9.98 0L8.81 0L12.05-8.58L13.36-8.58L16.45 0L15.19 0ZM12.61-7.31L11.25-3.52L13.92-3.52L12.66-7.31L12.61-7.31ZM17.67-8.58L18.84-8.58L18.84 0L17.67 0L17.67-8.58ZM22.22-8.58L26.53-1.64L26.53-8.58L27.66-8.58L27.66 0L26.34 0L21.98-6.94L21.94-6.94L21.94 0L20.81 0L20.81-8.58L22.22-8.58ZM35.11 0L34.27-2.48L30.80-2.48L29.91 0L28.73 0L31.97-8.58L33.28-8.58L36.38 0L35.11 0ZM32.53-7.31L31.17-3.52L33.84-3.52L32.58-7.31L32.53-7.31ZM38.81-8.58L43.13-1.64L43.13-8.58L44.25-8.58L44.25 0L42.94 0L38.58-6.94L38.53-6.94L38.53 0L37.41 0L37.41-8.58L38.81-8.58ZM50.20-1.03L55.50-1.03L55.50 0L48.75 0L48.75-0.94L54-7.59L49.13-7.59L49.13-8.58L55.50-8.58L55.50-7.59L50.20-1.03ZM57.80-5.06L62.30-5.06L62.30-8.58L63.47-8.58L63.47 0L62.30 0L62.30-3.98L57.80-3.98L57.80 0L56.63 0L56.63-8.58L57.80-8.58L57.80-5.06ZM66.56-1.03L71.72-1.03L71.72 0L65.39 0L65.39-8.58L71.63-8.58L71.63-7.59L66.56-7.59L66.56-4.92L71.25-4.92L71.25-3.89L66.56-3.89L66.56-1.03ZM74.63-8.58L78.94-1.64L78.94-8.58L80.06-8.58L80.06 0L78.75 0L74.39-6.94L74.34-6.94L74.34 0L73.22 0L73.22-8.58L74.63-8.58ZM83.25-8.58L87.56-1.64L87.56-8.58L88.69-8.58L88.69 0L87.38 0L83.02-6.94L82.97-6.94L82.97 0L81.84 0L81.84-8.58L83.25-8.58ZM90.66-8.58L91.83-8.58L91.83 0L90.66 0L90.66-8.58ZM99.47-3.19L99.47-8.58L100.64-8.58L100.64-3.05Q100.50 0.05 97.13 0.14L97.13 0.14Q93.98 0.05 93.84-2.86L93.84-2.86L93.84-8.58L95.02-8.58L95.02-3.19Q95.06-0.84 97.17-0.80L97.17-0.80Q99.47-0.84 99.47-3.19L99.47-3.19Z" transform="translate(-0.890625, 8.578125)"></path></g></g></g></g></g><defs v-gra="od"></defs></svg>